<svg width="45.846008" height="36.917969" viewBox="0 0 45.846 36.918" fill="none" xmlns="http://www.w3.org/2000/svg" xmlns:xlink="http://www.w3.org/1999/xlink">
	<desc>
			Created with Pixso.
	</desc>
	<defs/>
	<path id="#3" d="M43.1927 18.459Q40.5394 15.6533 35.4993 15.0312L44.3353 4.51953L44.3353 0L19.5286 0L19.5286 5.66211L36.0706 5.66211L27.806 15.4883L27.806 20.1221L31.1321 20.1221Q35.1312 20.1221 37.0735 21.5566Q37.9231 22.1745 38.4035 23.0058Q39.0286 24.0874 39.0286 25.5303Q39.0286 26.8241 38.4999 27.8437Q37.9859 28.8351 36.972 29.5674Q34.928 31.04 31.3353 31.04Q29.7353 31.04 28.1821 30.7708Q26.8143 30.5337 25.4827 30.0879Q22.6517 29.123 20.6712 27.4473L17.764 32.7031Q20.3157 34.6836 23.9212 35.8008Q24.5694 36.0009 25.2266 36.1652Q28.2376 36.918 31.4368 36.918Q36.1214 36.918 39.3714 35.3818Q42.5456 33.8815 44.1576 31.3761Q44.1961 31.3163 44.2337 31.2559Q44.8469 30.2661 45.2268 29.1937Q45.846 27.4463 45.846 25.4795Q45.846 22.7059 44.697 20.5426Q44.1 19.4184 43.1927 18.459ZM15.1699 30.1338L11.9297 30.1338L12.457 25.8623L15.9609 25.8623L15.9375 23.6768L12.7207 23.6768L13.2246 19.5986L11.039 19.5986L10.5351 23.6768L6.50388 23.6768L7.00779 19.5986L4.8281 19.5986L4.31834 23.6768L0.81443 23.6768L0.81443 25.8623L4.05466 25.8623L3.50388 30.1338L-2.28882e-05 30.1338L-2.28882e-05 32.3193L3.24021 32.3193L2.73631 36.3975L4.92185 36.3975L5.42576 32.3193L9.48045 32.3193L8.97654 36.3975L11.1621 36.3975L11.666 32.3193L15.1699 32.3193L15.1699 30.1338ZM10.2715 25.8623L9.74412 30.1338L5.68943 30.1338L6.24021 25.8623L10.2715 25.8623Z" fill="#DB3138" fill-opacity="1.000000" fill-rule="evenodd"/>
</svg>
