<svg width="46.366516" height="36.917969" viewBox="0 0 46.3665 36.918" fill="none" xmlns="http://www.w3.org/2000/svg" xmlns:xlink="http://www.w3.org/1999/xlink">
	<desc>
			Created with Pixso.
	</desc>
	<defs/>
	<path id="#2" d="M46.3665 36.918L46.3665 31.1924L29.2025 31.1924L38.9271 21.9375Q42.4691 18.6113 43.7132 16.0215Q44.149 15.1098 44.4322 14.1529Q44.9573 12.3783 44.9573 10.4482Q44.9573 7.59775 43.7272 5.4527Q42.87 3.95789 41.4153 2.80566Q37.886 0 31.9573 0Q27.4886 0 23.8704 1.58691Q20.7279 2.97005 18.7042 5.31761Q18.406 5.66348 18.1321 6.03027L22.8675 9.67383Q23.8046 8.47128 25.0029 7.6497Q27.5871 5.87793 31.386 5.87793Q34.7122 5.87793 36.4261 7.23633Q36.9651 7.6564 37.3358 8.19277Q38.1526 9.37463 38.1526 11.1211Q38.1526 12.8477 37.2894 14.5869Q36.4388 16.3262 33.9886 18.6621L19.5286 32.3984L19.5286 36.918L46.3665 36.918ZM15.1699 30.6543L11.9297 30.6543L12.457 26.3828L15.9609 26.3828L15.9375 24.1973L12.7207 24.1973L13.2246 20.1191L11.039 20.1191L10.5351 24.1973L6.50388 24.1973L7.00779 20.1191L4.8281 20.1191L4.31834 24.1973L0.81443 24.1973L0.81443 26.3828L4.05466 26.3828L3.50388 30.6543L-2.28882e-05 30.6543L-2.28882e-05 32.8398L3.24021 32.8398L2.73631 36.918L4.92185 36.918L5.42576 32.8398L9.48045 32.8398L8.97654 36.918L11.1621 36.918L11.666 32.8398L15.1699 32.8398L15.1699 30.6543ZM10.2715 26.3828L9.74412 30.6543L5.68943 30.6543L6.24021 26.3828L10.2715 26.3828Z" fill="#DB3138" fill-opacity="1.000000" fill-rule="evenodd"/>
</svg>
