<svg width="32.579468" height="36.397461" viewBox="0 0 32.5795 36.3975" fill="none" xmlns="http://www.w3.org/2000/svg" xmlns:xlink="http://www.w3.org/1999/xlink">
	<desc>
			Created with Pixso.
	</desc>
	<defs/>
	<path id="#1" d="M32.5795 36.3975L32.5795 0L18.1322 0L18.1322 5.66211L25.8255 5.66211L25.8255 36.3975L32.5795 36.3975ZM15.1699 30.1338L11.9297 30.1338L12.4571 25.8623L15.961 25.8623L15.9375 23.6768L12.7207 23.6768L13.2246 19.5986L11.0391 19.5986L10.5352 23.6768L6.50393 23.6768L7.00784 19.5986L4.82815 19.5986L4.31838 23.6768L0.814476 23.6768L0.814476 25.8623L4.05471 25.8623L3.50393 30.1338L2.28882e-05 30.1338L2.28882e-05 32.3193L3.24026 32.3193L2.73635 36.3975L4.9219 36.3975L5.4258 32.3193L9.48049 32.3193L8.97659 36.3975L11.1621 36.3975L11.666 32.3193L15.1699 32.3193L15.1699 30.1338ZM10.2715 25.8623L9.74416 30.1338L5.68948 30.1338L6.24026 25.8623L10.2715 25.8623Z" fill="#DB3138" fill-opacity="1.000000" fill-rule="evenodd"/>
</svg>
