<svg width="40.000000" height="40.000000" viewBox="0 0 40 40" fill="none" xmlns="http://www.w3.org/2000/svg" xmlns:xlink="http://www.w3.org/1999/xlink">
	<desc>
			Created with Pixso.
	</desc>
	<defs>
		<clipPath id="clip28_193">
			<rect id="soc-icons" rx="5.000000" width="20.000000" height="20.000000" transform="translate(10.000000 10.000000)" fill="white" fill-opacity="0"/>
		</clipPath>
	</defs>
	<rect id="Rectangle 51" x="0.500000" y="0.500000" rx="5.000000" width="39.000000" height="39.000000" stroke="#F5F5F5" stroke-opacity="1.000000" stroke-width="1.000000"/>
	<rect id="soc-icons" rx="5.000000" width="20.000000" height="20.000000" transform="translate(10.000000 10.000000)" fill="#FFFFFF" fill-opacity="0"/>
	<g clip-path="url(#clip28_193)">
		<path id="Vector" d="M27.22 13.09L12.44 18.79C11.43 19.2 11.44 19.76 12.26 20.01L16.05 21.19L24.83 15.65C25.24 15.4 25.62 15.54 25.31 15.81L18.2 22.23L18.2 22.23L18.2 22.23L17.94 26.14C18.32 26.14 18.49 25.97 18.7 25.76L20.55 23.97L24.38 26.8C25.09 27.19 25.59 26.99 25.77 26.14L28.28 14.29C28.54 13.25 27.89 12.79 27.22 13.09Z" fill="#FFFFFF" fill-opacity="1.000000" fill-rule="nonzero"/>
	</g>
</svg>
