<svg width="40.000000" height="40.000000" viewBox="0 0 40 40" fill="none" xmlns="http://www.w3.org/2000/svg" xmlns:xlink="http://www.w3.org/1999/xlink">
	<desc>
			Created with Pixso.
	</desc>
	<defs>
		<clipPath id="clip28_203">
			<rect id="soc-icons" rx="5.000000" width="20.000000" height="20.000000" transform="translate(10.000000 10.000000)" fill="white" fill-opacity="0"/>
		</clipPath>
	</defs>
	<rect id="Rectangle 64" x="0.500000" y="0.500000" rx="5.000000" width="39.000000" height="39.000000" stroke="#F5F5F5" stroke-opacity="1.000000" stroke-width="1.000000"/>
	<rect id="soc-icons" rx="5.000000" width="20.000000" height="20.000000" transform="translate(10.000000 10.000000)" fill="#FFFFFF" fill-opacity="0"/>
	<g clip-path="url(#clip28_203)">
		<path id="Vector" d="M29.96 14.88C30.13 15.34 29.61 16.41 28.4 18.1C28.23 18.33 28.01 18.63 27.74 19.02C27.18 19.73 26.87 20.2 26.79 20.43C26.67 20.74 26.72 21.03 26.94 21.31C27.06 21.47 27.34 21.77 27.78 22.23L27.81 22.23L27.81 22.27C28.81 23.22 29.48 24.02 29.82 24.68L29.89 24.84L29.96 25.12L29.96 25.49L29.71 25.77L29.09 25.91L26.43 25.99C26.26 26.01 26.06 25.99 25.83 25.91C25.6 25.83 25.42 25.76 25.3 25.68L25.08 25.53C24.86 25.37 24.62 25.14 24.35 24.84C24.08 24.53 23.85 24.25 23.64 23.99C23.44 23.74 23.22 23.53 23 23.36C22.79 23.2 22.59 23.14 22.42 23.19C22.4 23.19 22.37 23.2 22.33 23.23C22.29 23.25 22.23 23.31 22.15 23.4C22.06 23.49 21.99 23.6 21.93 23.73C21.87 23.85 21.81 24.04 21.76 24.28C21.72 24.52 21.69 24.81 21.69 25.14C21.69 25.25 21.68 25.34 21.66 25.43C21.63 25.52 21.61 25.59 21.58 25.64L21.55 25.68C21.4 25.83 21.21 25.91 20.96 25.91L19.8 25.91C19.29 25.96 18.77 25.91 18.25 25.76C17.73 25.6 17.27 25.4 16.88 25.16C16.49 24.92 16.14 24.68 15.83 24.43C15.51 24.19 15.27 23.98 15.1 23.8L14.84 23.53C14.77 23.48 14.67 23.38 14.55 23.23C14.43 23.08 14.18 22.74 13.8 22.23C13.43 21.72 13.06 21.17 12.69 20.59C12.33 20 11.9 19.23 11.42 18.27C10.93 17.31 10.48 16.32 10.07 15.3C10.02 15.17 10 15.07 10 15C10 14.92 10.01 14.85 10.03 14.8L10.07 14.77C10.17 14.61 10.36 14.54 10.65 14.54L13.53 14.54C13.6 14.54 13.68 14.55 13.75 14.59L13.93 14.69L13.97 14.73C14.09 14.8 14.17 14.92 14.22 15.07C14.37 15.43 14.53 15.81 14.71 16.2C14.9 16.6 15.04 16.9 15.13 17.1L15.28 17.41C15.5 17.84 15.7 18.22 15.88 18.54C16.06 18.86 16.23 19.11 16.37 19.28C16.52 19.46 16.66 19.6 16.81 19.71C16.95 19.81 17.08 19.86 17.17 19.86C17.27 19.86 17.37 19.85 17.46 19.82L17.5 19.76L17.63 19.51L17.77 19.02L17.87 18.14L17.87 16.76C17.84 16.48 17.81 16.21 17.76 15.97C17.71 15.73 17.66 15.56 17.61 15.45L17.57 15.34C17.4 15.08 17.1 14.92 16.66 14.84C16.59 14.84 16.61 14.75 16.74 14.57C16.86 14.45 16.99 14.34 17.14 14.27C17.5 14.06 18.33 13.97 19.61 14C20.17 14 20.65 14.05 21.04 14.15C21.16 14.18 21.27 14.22 21.36 14.29C21.46 14.35 21.53 14.44 21.58 14.55C21.63 14.67 21.67 14.78 21.69 14.9C21.72 15.01 21.73 15.18 21.73 15.4L21.73 15.99C21.7 16.19 21.69 16.45 21.69 16.76L21.69 17.68C21.69 17.75 21.69 17.91 21.67 18.14C21.66 18.36 21.66 18.54 21.66 18.67C21.66 18.8 21.67 18.95 21.69 19.11C21.72 19.28 21.76 19.42 21.82 19.53C21.88 19.65 21.96 19.73 22.06 19.78C22.11 19.81 22.16 19.83 22.22 19.84C22.28 19.85 22.37 19.81 22.49 19.72C22.62 19.63 22.75 19.51 22.89 19.34C23.04 19.18 23.22 18.93 23.44 18.59C23.66 18.26 23.89 17.88 24.13 17.45C24.55 16.68 24.92 15.85 25.26 14.96C25.29 14.91 25.32 14.85 25.35 14.78C25.39 14.72 25.43 14.68 25.48 14.65L25.52 14.65L25.55 14.61L25.7 14.57L25.92 14.57L28.91 14.54C29.17 14.51 29.4 14.52 29.58 14.57C29.76 14.62 29.87 14.69 29.89 14.77L29.96 14.88Z" fill="#FFFFFF" fill-opacity="1.000000" fill-rule="nonzero"/>
	</g>
</svg>
